# xmcd
#
# Track frame offsets:
#	150
#	20255
#	39085
#	59861
#	78091
#	93798
#	115778
#	135357
#	152853
#	170379
#
# Disc length: 2478 seconds
#
# Revision: 2
# Processed by: cddbd v1.4b41PL2 Copyright (c) Steve Scherf et al.
# Submitted via: EZCDDA 4.3.2
#
DISCID=6c09ac0a
DTITLE=Parrita - Baladas Gitanas CD-1
DYEAR=1900
DGENRE=
TTITLE0=Eres mia
TTITLE1=Contando las horas
TTITLE2=Cuando se trata de amor
TTITLE3=Cuando se trata de amor
TTITLE4=Luna de plata
TTITLE5=Pierdete conmigo
TTITLE6=Ultimamente
TTITLE7=Me marcho
TTITLE8=Vuela mas alto que tu
TTITLE9=Dejame mañana
EXTD=
EXTT0=
EXTT1=
EXTT2=
EXTT3=
EXTT4=
EXTT5=
EXTT6=
EXTT7=
EXTT8=
EXTT9=
PLAYORDER=
